/vscmnt/brussel_pixiu_data/_data_brussel/112/vsc11236/PredSimResults/SUBJ04mtu3D/weighted-LRposFixed/trackIG/worker_02.mot
version=1
nRows=11
nColumns=50
inDegrees=yes
endheader
                time	         pelvis_tilt	         pelvis_list	     pelvis_rotation	           pelvis_tx	           pelvis_ty	           pelvis_tz	       hip_flexion_r	     hip_adduction_r	      hip_rotation_r	        knee_angle_r	       ankle_angle_r	         mtp_angle_r	       hip_flexion_l	     hip_adduction_l	      hip_rotation_l	        knee_angle_l	       ankle_angle_l	         mtp_angle_l	    lumbar_extension	      lumbar_bending	     lumbar_rotation	 ercspn_r/activation	 intobl_r/activation	 extobl_r/activation	    abd_r/activation	    add_r/activation	hamstrings_r/activation	bifemsh_r/activation	glut_max_r/activation	iliopsoas_r/activation	rect_fem_r/activation	  vasti_r/activation	gastroc_r/activation	 soleus_r/activation	tib_ant_r/activation	 ercspn_l/activation	 intobl_l/activation	 extobl_l/activation	    abd_l/activation	    add_l/activation	hamstrings_l/activation	bifemsh_l/activation	glut_max_l/activation	iliopsoas_l/activation	rect_fem_l/activation	  vasti_l/activation	gastroc_l/activation	 soleus_l/activation	tib_ant_l/activation	
          2.07975128	         -5.31553685	          4.76683403	        -12.11355110	          1.80938362	          0.88476022	          0.02133605	         -8.29501402	         -4.27372088	         15.98854455	         -8.01427501	         12.65908372	         22.07756486	         24.29628431	          0.33804586	         -5.11066587	          2.36534324	          5.32394732	          0.21147717	         -3.03540865	         -1.64545707	          0.89547346	          0.02691747	          0.01000000	          0.01000001	          0.09843763	          0.01000004	          0.01966115	          0.14607030	          0.07131502	          0.33995914	          0.01000011	          0.01000001	          0.30640007	          0.27506525	          0.01515566	          0.09325708	          0.15514089	          0.02288026	          0.02457508	          0.09226417	          0.02887880	          0.01000086	          0.01000000	          0.05779075	          0.01149465	          0.02093584	          0.01000001	          0.01000001	          0.26391444	
          2.09361629	         -5.44096886	          4.66059989	        -11.99496416	          1.82389292	          0.88287046	          0.02024114	         -8.52468991	         -4.13692187	         15.16987370	         -9.25390581	         12.51628479	         23.69633971	         23.93479213	          0.61599968	         -3.80560178	          1.84404476	          4.99426823	          0.21856661	         -2.76191994	         -1.92987826	          1.14259296	          0.05309011	          0.01000000	          0.01000002	          0.07996017	          0.01616891	          0.01655952	          0.11865186	          0.06462628	          0.30917268	          0.01000008	          0.01000001	          0.28558562	          0.27236707	          0.01231083	          0.07575207	          0.15368044	          0.01858547	          0.01996217	          0.12091889	          0.02711489	          0.01000030	          0.01043313	          0.04694301	          0.01000073	          0.01700609	          0.01602716	          0.01535786	          0.26437100	
          2.10748130	         -5.55033201	          4.54803458	        -11.81169271	          1.83878852	          0.88112440	          0.01905120	         -8.69969332	         -3.97589002	         14.29472801	        -10.67711476	         12.25974019	         25.36607646	         23.44731485	          0.89373873	         -2.54237331	          1.28163301	          4.60953655	          0.21140218	         -2.47021874	         -2.22960487	          1.38329979	          0.07177460	          0.01000000	          0.01000003	          0.06495105	          0.03083964	          0.01345272	          0.09638005	          0.05275929	          0.27053502	          0.01000021	          0.01000004	          0.26074141	          0.26275344	          0.01000000	          0.06607843	          0.16628324	          0.01509684	          0.02551681	          0.09822156	          0.02959873	          0.05710588	          0.01943337	          0.03813146	          0.01000007	          0.01381394	          0.01301875	          0.01247508	          0.29833299	
          2.12134631	         -5.64429088	          4.43420379	        -11.55315175	          1.85388559	          0.87972549	          0.01775276	         -8.76214239	         -3.78684267	         13.37170667	        -12.35218416	         11.83174755	         27.07917143	         22.85257286	          1.18629467	         -1.35175538	          0.91112975	          4.09061268	          0.19920424	         -2.17942953	         -2.55174090	          1.61610494	          0.09590261	          0.01000000	          0.01000002	          0.05275926	          0.03200774	          0.01298109	          0.07828882	          0.04285600	          0.22618189	          0.01000054	          0.01000009	          0.22720025	          0.24558994	          0.01000000	          0.06920247	          0.15058953	          0.01226306	          0.04795853	          0.07978473	          0.03002113	          0.04638685	          0.02998264	          0.03097391	          0.01000007	          0.01122104	          0.01057506	          0.01013343	          0.32420865	
          2.13521132	         -5.72276332	          4.31857948	        -11.21810594	          1.86904434	          0.87884726	          0.01636152	         -8.68190358	         -3.56725855	         12.38925261	        -14.29751828	         11.17471502	         28.79757373	         22.19760025	          1.49515715	         -0.24145321	          0.61331142	          3.61738751	          0.18537592	         -1.90034692	         -2.89648478	          1.83896416	          0.11328647	          0.01000000	          0.01000002	          0.04285596	          0.03334703	          0.01409234	          0.06359346	          0.03481162	          0.19496858	          0.01000028	          0.01000007	          0.18455309	          0.21755853	          0.01000000	          0.06595244	          0.12633608	          0.01000001	          0.06679311	          0.06480891	          0.03384707	          0.03767984	          0.03532203	          0.02515988	          0.01000007	          0.01325750	          0.01000007	          0.01000004	          0.34597387	
          2.14907633	         -5.78566975	          4.19743027	        -10.81044009	          1.88416787	          0.87856172	          0.01489662	         -8.44382758	         -3.31640316	         11.33267246	        -16.51447547	         10.27862977	         30.42361947	         21.50185937	          1.81048148	          0.78749651	          0.34252173	          3.25647317	          0.17251473	         -1.63889759	         -3.25658755	          2.04816756	          0.12464950	          0.01000000	          0.01000002	          0.03481158	          0.03991571	          0.01887133	          0.05165655	          0.02827722	          0.17457850	          0.01000010	          0.01000003	          0.14991111	          0.17672119	          0.01000000	          0.06017241	          0.10262191	          0.01000001	          0.08667693	          0.06233680	          0.03849966	          0.03060722	          0.03097150	          0.02043719	          0.01000005	          0.01721475	          0.01000007	          0.01000004	          0.35783806	
          2.16294134	         -5.83300184	          4.06436369	        -10.33630376	          1.89916730	          0.87884935	          0.01337767	         -8.03460922	         -3.03350626	         10.18450758	        -19.00810934	          9.18522659	         31.79444366	         20.77536673	          2.11782735	          1.73923635	          0.08217045	          3.02878499	          0.16273048	         -1.40200144	         -3.62133120	          2.24086423	          0.13444119	          0.01000000	          0.01000003	          0.02827719	          0.05185600	          0.02380271	          0.04196038	          0.02296938	          0.15747594	          0.01000004	          0.01000001	          0.12177169	          0.14354932	          0.01000000	          0.05239788	          0.08335904	          0.01000001	          0.10633338	          0.06490574	          0.04131556	          0.02486225	          0.02515801	          0.01660098	          0.01000004	          0.01543113	          0.01000010	          0.01000006	          0.35696225	
          2.17680634	         -5.86521250	          3.90911169	         -9.80165491	          1.91395607	          0.87967205	          0.01182488	         -7.44363459	         -2.71880415	          8.92301098	        -21.77427943	          7.95371351	         32.70048822	         20.02087407	          2.39831245	          2.61166619	         -0.16225332	          2.92144787	          0.15607739	         -1.19775546	         -3.97631670	          2.41551207	          0.13623104	          0.01000001	          0.01000004	          0.02296935	          0.06086080	          0.02806999	          0.03835477	          0.01865786	          0.14125862	          0.01000002	          0.01000000	          0.09891424	          0.11660405	          0.01000000	          0.04636568	          0.06771195	          0.01000001	          0.11515063	          0.05275933	          0.04394349	          0.02019580	          0.02043577	          0.01348486	          0.01000003	          0.01492724	          0.01000016	          0.01000010	          0.34846245	
          2.19067135	         -5.88282801	          3.71730149	         -9.21243017	          1.92847688	          0.88098346	          0.01025514	         -6.66504698	         -2.37600100	          7.53933810	        -24.80530952	          6.63988792	         32.94889207	         19.23717517	          2.63152734	          3.41045475	         -0.37675773	          2.89661879	          0.15312516	         -1.03261952	         -4.30329509	          2.57098590	          0.13362846	          0.01000001	          0.01000005	          0.01865784	          0.06998293	          0.02869300	          0.03895499	          0.01515564	          0.12703640	          0.01000001	          0.01000000	          0.08034731	          0.09471661	          0.01000000	          0.04350737	          0.05500194	          0.01000001	          0.11564470	          0.04285606	          0.04657531	          0.01640560	          0.01752800	          0.01095366	          0.01000003	          0.01359041	          0.01000022	          0.01000013	          0.33611977	
          2.20453636	         -5.88566871	          3.47592933	         -8.57322742	          1.94271909	          0.88270240	          0.00867943	         -5.70221963	         -2.01346152	          6.05656760	        -28.07474593	          5.19843924	         32.56250220	         18.42396085	          2.80070696	          4.14846218	         -0.55542552	          2.92070920	          0.15323497	         -0.90841663	         -4.58582696	          2.70512890	          0.12985500	          0.01000001	          0.01000006	          0.01515562	          0.08111931	          0.02731760	          0.03877141	          0.01231082	          0.11613969	          0.01000001	          0.01000000	          0.06526552	          0.07693760	          0.01000000	          0.03767138	          0.04467768	          0.01000001	          0.10927383	          0.03481167	          0.04904988	          0.01332749	          0.01638818	          0.01000001	          0.01000003	          0.01255505	          0.01000023	          0.01000014	          0.32342261	
          2.21840137	         -5.87316972	          3.17569879	         -7.88726009	          1.95669018	          0.88471856	          0.00709957	         -4.56903695	         -1.64090232	          4.51253318	        -31.52130560	          3.53140884	         31.66454948	         17.58774561	          2.89402144	          4.83619814	         -0.70788810	          2.97579481	          0.15558272	         -0.82515542	         -4.81076385	          2.81621986	          0.12487737	          0.01000000	          0.01000006	          0.01231080	          0.09647690	          0.02452329	          0.04963354	          0.01000000	          0.10874071	          0.01000001	          0.01000000	          0.05301470	          0.06249585	          0.01000001	          0.03060021	          0.03629136	          0.01000001	          0.10062567	          0.02827727	          0.05160188	          0.01082946	          0.01634738	          0.01000002	          0.01000002	          0.01088181	          0.01000015	          0.01000010	          0.31202585	
